# xmcd
# Copyright (C) 1995-1998 Ti Kan
#
# Track frame offsets:
#       150
#       13727
#       30897
#       53141
#       67296
#       88713
#       108659
#       133391
#       148721
#       168167
#       187613
#       204489
#       225330
#       242929
#       260353
#       277856
#       296585
#       322892
#       340028
#
# Disc length: 4648 seconds
#
# Revision: 0
# Processed by: cddbd v1.5.2PL0 Copyright (c) Steve Scherf et al.
# Submitted via: CD-Transfer v1.0
#
DISCID=0c122613
DTITLE=Boomtown Rats, The - Bob Geldof
DYEAR=1900
DGENRE=
TTITLE0=She's So Modern
TTITLE1=Mary Of The 4th Form
TTITLE2=Rat Trap
TTITLE3=Looking After No. 1
TTITLE4=When The Night Comes
TTITLE5=Someone Looking At You
TTITLE6=Joe's On The Street Again
TTITLE7=Banana Republic
TTITLE8=Dave
TTITLE9=I Don't Like Mondays
TTITLE10=Like Clockworm
TTITLE11=(I Never Loved) Eva Brown
TTITLE12=Neon Heart
TTITLE13=Never In A Million Years
TTITLE14=Diamond Smiles
TTITLE15=Drag Me Down
TTITLE16=I Can Make It (If You Can)
TTITLE17=Elephants Graveyard, The
TTITLE18=Fall Down
EXTD=
EXTT0=
EXTT1=
EXTT2=
EXTT3=
EXTT4=
EXTT5=
EXTT6=
EXTT7=
EXTT8=
EXTT9=
EXTT10=
EXTT11=
EXTT12=
EXTT13=
EXTT14=
EXTT15=
EXTT16=
EXTT17=
EXTT18=
PLAYORDER=
